<svg width="40" height="40" viewBox="0 0 40 40" xmlns="http://www.w3.org/2000/svg">
    <g fill="none" fill-rule="evenodd">
        <path d="M15.986 35.225v.032c0 2.619 2.164 4.744 4.835 4.744 2.67 0 4.835-2.125 4.835-4.744v-.032h-9.67zM20.82 0c1.2 0 2.174.954 2.174 2.132V4.54c5.082.99 8.913 5.389 8.913 10.663v7.823l4.351 6.27c.46.661.508 1.516.126 2.222a2.203 2.203 0 0 1-1.943 1.148H7.198a2.204 2.204 0 0 1-1.943-1.148 2.121 2.121 0 0 1 .126-2.222l4.352-6.27v-7.822c0-5.275 3.831-9.673 8.914-10.664V2.13C18.647.955 19.619 0 20.82 0z" fill="#FFF"/>
        <path d="M0 0h40v40H0z"/>
    </g>
</svg>
