<svg width="50" height="50" viewBox="0 0 50 50" xmlns="http://www.w3.org/2000/svg">
    <g fill="none" fill-rule="evenodd">
        <path d="M0 0h50v50H0z"/>
        <path d="M36.498 26.901h-1.292l-3.8 3.8h3.63l3.362 3.8H11.8l3.382-3.8h3.894l-3.8-3.8H13.7l-5.7 5.7v7.6C8 42.29 9.69 44 11.78 44h26.618c2.09 0 3.8-1.69 3.8-3.8v-7.6l-5.7-5.699zM26.543 6.553 14.44 18.656a1.892 1.892 0 0 0 0 2.678l9.404 9.405a1.892 1.892 0 0 0 2.679 0l12.083-12.083a1.892 1.892 0 0 0 0-2.68l-9.404-9.404a1.853 1.853 0 0 0-2.66-.019z" fill="#545454" fill-rule="nonzero"/>
    </g>
</svg>
